<svg xmlns="http://www.w3.org/2000/svg" viewBox="0 0 949 860.93"><defs><style>.cls-1{fill:#fff}</style></defs><g id="Layer_2" data-name="Layer 2"><g id="Layer_1-2" data-name="Layer 1"><path class="cls-1" d="M949 856L6 860.93l-2.3-441.8-1.16-220.9L2 87.78c-.12-16.59-4.21-39.18-.33-55.23C9.7-.58 1.84 4.94 43.13 4.72L944.52 0zm-473.44-87.54c-19 4.59 9.07 24.14 8.55 27.28-5.93-3-37.51-16.34-38.51-15.6-27.48 20.47 19 23.62 19.23 23.69 29 9 66.38 2.18 99.9 3 15.44.39 75 2.23 29.77-26.54-13.57-8.63-55.1 4.88-55 22.27-18.88-8.44-42.27-13.07-41-37.09 24.09 3.84 34.56-15 40.88-33.6 1.41.64 8.81 23.61 13.47 28.1 11.24 10.83 41.82 16.29 54.47 10.18 17.62-8.5 9.09-46.3 33.18-42.71 7.38 1.11 10.55 36.41 37.93 31.16.12 22.47 33.1 16 37.64 5 .11 9.18 10.86 15.88 10 20-3.08 14.18-28.83 21.34 4.6 26.14 27.81 4 17.49-26.37 23.19-25.29-4-.76 12.27 20.43 14.79 22.45 6.65 5.32 30.34 11.15 38.1 11.89 28.91 2.75 39-11.77 58.59 3.65 3.66-6.34 21.73-38.6 5.85-32.22 19.66-7.9-2.88-3.86-.3-17.19a10.36 10.36 0 0 1 8.73-4q-4.15-13.62-18.68-9.77c12.19 16.47-1.13 11.43-11.24 18.77-2.7 1.97 11.5 3.28 11.44 4.97-.27 7.31-21.52-13.49-33.58.08-6.38-8.37-3.93-4.67-13.52-2.81 1.28-6.79 1.08-11.8-1.4-18.27 1.76-.91 37.24-4.53 37-5q-10.14.47-15.18 8.51c25.49 11.67 18.32-2.4 22.11-21.34 14.17 9.77-4.72 9.88 23.6 12-7.81-32 23.16-114.6 3.93-139-17-21.51-158.81-2.3-187.7-2.51-29.27-.21-77.52 4.82-103.07-6.46-17.47-7.71-7-16.21-33.29-23.49-18.51-5.14-49.73 7.45-64.52-4.33 24.31-12.71 73.49 16.64 93.4 5.63 16.51-9.13 21.49-38 24.75-57.93 7.91 2.46 87.84 29.9 89.48 20.9.54-3-6.65-8-8.08-10.07 32.84 7.35-8.59-57.91-15.54-52 7.44-6.36 19.64 13.43 21.18 17.49 8-.25 9.56-38.06 5.51-45.19-7.37 5.94-39.13-12.37-52-15.71-16.55-4.28-17.35 2-28.69-5.76s13.35-12.74 8.57-14.45c-20.48-7.36-17.69-5.1-34.38-6.1-2.32-16.75 41.39-37 .89-36.81.91-17.66 23.36-44 42.8-45.77-1.26 6.78-17.39 19.81-14.55 27.79.95 2.64 18.2 29.71 21.08 21.13 4.27-12.71-14.75-10.76-.92-25.64a15.94 15.94 0 0 0 6.19 15.08q1.49-15.1 21-8.86c-2.12-16.11-31.56 26.66-15.59 26.63 10.35 0-.57-14.71 15.76-9.33 12.53 4.14 20.39 19.16 36.84 13q-4.89-2.33-2.9-8c1-4.38 10.94 8.41 11.25 10.19 1.3 7.47-20.62 39-6.62 38.13 2.2-7.73 11.37-54.64 28.51-30.23 6.14 8.74-6.32 31.95-8.29 42-1.48 7.55-16.08 55.09-15.85 56.08 5.56 23.74 18.15-21.41 18-21.09 7.59-21.14 7.15-47 15.36-69a1098.67 1098.67 0 0 1 132.51 58.2c15.84-51.8 2-143.59-16.42-194.85-19.13-53.08-53.29-98.47-93.93-136.86C676.09 45.79 538.64 15 406.38 36.52 314.74 51.43 227.26 103.73 170 177.26c-66.4 85.2-102.49 213.49-83.88 321.41 6.48 0 32.85-34.6 40.44-41.09 28.26-24.12 59-27.05 87.95-42.61 29.16-15.66 17.2-45.41 51.32-47.45 1.43-3.13-.62-4.51-6.12-4.13a15 15 0 0 0 8.79-11c2.3 5.23-27-6.39-21.27-5.34-4 1-5.44 3.6-4.21 7.86-8.47-5.73-3.71-32.47-16.49-27.67q-2.76 7.53 2.61 14.05c-18.67 3.58-5-25.44-30.29-2.88-8.88 7.92-9.55 16.47-6.16 33.13-14.26 3.83-3.56-48.69 4-56.88 11.61-12.61 43.73-20.12 57.79-13s10.14 27.18 18.93 32.78c16.88 10.76 46.21-15.14 65.13-.65-14.75-1.75-54.38-1.58-63.28 12-2.87 4.39-4.17 40.31 8.45 35.16 0-2.88-7.17-15.5-1.06-16.38 31.2-4.53-15.07 67.22-22.25 58.05 20.71 26.43 85.6-66.15 84.26-66.56-7.41 23.84-16.74 39.62-36.37 53.82-13 9.43-28.76 11.11-42 19.49q-19.41-4.71-24.36 10.63 7 8-2.42 13.52c-8.22-9.91-5.69-32.07-18.91-35.91 1.47 8.19-13.6 6.8-8 12.71 24.71 26.1-14.72 28.17-10.61 37.39 2.82 6.32 13.22-2.26 15-3.43 4.69 18.86-3.23 19.12-19.3 22.4-26.9 5.51-4.87-7-17.18-12.07-33.31 26.37 69.46 25.39 66.07-2.8-10.05 3.69-9.55 5.31-22.43 6.07-.11-20.58 46.11-10.12 40.88-26.84-2.45-7.85-7.49 1.6-9.1 1.32l-.06-10c31.2-2.39-21.65 67.52-32.09 73.46-.85-8.47 4.07-21.94-9.44-17.9-.91.27 4.65 48.36 5.08 49.16 12.39-9.45 11-27.36 28.53-38.8 3-2 31.5 1.94 27.84-6a49.27 49.27 0 0 0-16.18-9.28c21-12.82 33.15-33.63 52.93-41.62 5.09-2.06 48.42-13 52.14-8.83 6.48 7.29-43.17 20.19-42.17 27.59a84.66 84.66 0 0 1 33-.29C340 481.19 266.8 476.36 277.73 517c-.21-.14-42.7 46.34-42.11 50.79 17.94-.1 114.07-9.91 121-.94-11.47 7.6-28.11-3.3-38.84 7.73 36.38 26 75.41 16 117.7 14.86 13.26-.37 104.16 6.55 94 18.41-11 12.81-80.84 1.68-100.06 1.52-35.4-.28-70.71-2-106.09-2.84-80.22-2-162 3.61-241.85-3.08.25 47.46 39-4.19 53.47 21a15.57 15.57 0 0 1-7.1 11.33c-5.34-4.35-2.78-2.65-.36-8.55-16.54 1.92-41.69 10.66-51 25.41-12.68 20 6.24 29.33 12.45 42.58-23 4.39-19.86 47.54-19.77 63.83 0 10.71 9.63 62.74 20.07 37.89 13.11 20.65 39.56 9.53 60.23 9.43 12.48-.06 18.46 3.46 31.81 1.92 16.3-1.88 8-10.22 18.2-13.35.12 24 35-5.23 37.76-1.88-25.48 23.53 45.76 13.92 59.57 14.35 13.06.41 36.4 2.74 49.15 0 2.48-.53 31.45-12.31 29.89-12.28-11.27 31.45 23 3.2 24.95 7.49a11.8 11.8 0 0 0-12-4.94c3.44-10 20.22-10.63 29.29-4-3.85 2.94-15.6 3.46-15.39 2.35-1.78 9.38 13.44 13.79 20.27 10.47 24.08-11.7 3.52-13 5.6-20.64 0 .06 29.38-31.39 21.57-33.36-1.88-.5 26.22 16.83 25.42 15.96zm260.71-246.35c-32.51.17-19.57 9.84-2.66 21.53-.8 1.7-20.49-1.26-17.15 5.71 8.54 17.82 64.06-1.22 68.85-16.43-17.44-12-34.56-6.14-47.09-21.72q-4.45 4.26-1.95 10.91zm-12.14 70.95c-5.2-.94-96-26.52-88.4 3.29 1.73 6.76 89.27 13.41 88.4-3.29zm-610.67-4c-2.06-7.62 69.17-40.71 65-56.53-23.69-2.28-32.57 19-50.4 30.37 10 3.39-23.73 19.49-23.87 22.32-.29 5.95 6.71.75 7.07 4.55-2.56.45-13.46.78-11.07 7 4.47.53 40.29-1.51 38.91-11.2q-13.01-3.09-25.64 3.48zm726.32-45.74c-6.92 4.21 19.49 32.16 23.1 37.63-8.13-2.79-71.41-2.24-72.17 5.4 0-.19 85.53 6.36 91.43 9.71 9.5-9.85-33.33-43.93-42.36-52.75zm-491.12 46.53c-11.25-12.61-63.11-9.91-71 1 9.69 3.99 63.25 10.7 71-1zm-189.77 0c18.81-21.08 49.2-56.48 23.26-87.22-12.58 10.66 6.1 38.57 1.92 51-3.36 9.97-35.88 28.37-25.18 36.2zm57.79-10.05c1.58 1 25.55 15.22 24.71 9.57-1.67-11.37-16.2-20.13-24.71-9.59zM823.16 521c-14.44 6.13 13.32 11.79 19.94 9.06q-3.78-11.9-19.94-9.06zM281.34 384.25q-7.41.31-10.79 6.56c-.08 7.06 20.92 7.08 10.79-6.56zm-67.62 61.35c-4.37-8.84-13.48.92-10.39 7.41q8.13.42 10.39-7.41zm-24.8 118.86c-4.06 5.52 3.86 17 6.45 11.27a17.88 17.88 0 0 0-6.45-11.27zm583.76-12.37c-9-.48-12.83 2.06-11.89 7.67 6.91-.06 11.52-2.92 11.89-7.67zm-574.15 29.57c-6.05.79-2.11 7.41-.05 10.15q8.07-4.39.05-10.15zm9.68.43q-8.24 5.13-1.36 9.74 10.44-4.83 1.36-9.74zM781 499.86c-6.77 4.37 3.37 10.82 4.87 7.71a7.15 7.15 0 0 0-4.87-7.71zm-64.66 58.83q-2.59-5.94-9 0 4.07 10.01 8.97 0zm-468.4 15.81q-5.13-3.68-5.18 4.36 5.64 6.14 5.18-4.36zm15.22-246.29q-2-5.4-6.85.58 2.87 5.93 6.85-.58zM655.7 545.56q-5.84 1.22-.21 6.56 6.2-.68.21-6.56z"/><path d="M475.56 768.46s-25-15.92-25.5-16c10.37 2.62-21.21 32.06-21.57 33.36-2.24 8.23 25.68 7.54-5.6 20.64-7 2.93-22.08-.9-20.27-10.47-.21 1.11 11.54.59 15.39-2.35-9.07-6.63-25.85-6-29.29 4a11.8 11.8 0 0 1 12 4.94c-2-4.29-36.22 24-24.95-7.49 1.61 0-27.48 11.76-29.89 12.28-14.45 3.14-34.57.43-49.15 0S211.23 817 237.21 793c-3.12-3.73-37.63 26.87-37.76 1.88-9 2.77-2.18 13-16.44 14.24-13 1.1-21.06-2.87-33.57-2.81-20.77.09-47 11.44-60.23-9.43C78.64 822 69.19 769 69.14 759c-.1-16.91-3.24-59.44 19.77-63.83-6.37-13.58-25.39-20.47-12.45-42.58 8.37-14.3 36.4-23.71 51-25.41-2.42 5.9-5 4.2.36 8.55a15.57 15.57 0 0 0 7.1-11.33c-13.45-23.38-53.23 24.88-53.47-21 79.78 6.68 161.68 1.1 241.85 3.08 31.35.78 62.65 2.21 94 2.68 14.37.21 102.44 9.93 112.13-1.36 9.12-10.64-79.94-19.2-94-18.41-41.43 2.34-82.06 10.61-117.64-14.86 11-11.31 27.29-.07 38.84-7.73-6.44-8.33-102.46.84-121 .94-.59-4.45 41.9-50.93 42.11-50.79-10.64-39.52 62.23-35.73 77.78-47.15a84.66 84.66 0 0 0-33 .29c-.92-6.77 49-19.94 42.17-27.59-2.15-2.41-47.88 6.94-52.14 8.83-18 8-32.9 29.38-52.93 41.62a49.27 49.27 0 0 1 16.13 9.36c4.1 8.92-25.64 4.58-27.84 6-16.63 10.85-16.61 29.71-28.53 38.8-.43-.8-6-48.89-5.08-49.16 13.51-4 8.59 9.43 9.44 17.9 10.51-6 63-75.82 32.09-73.46l.06 10c1.61.28 6.65-9.17 9.1-1.32 5 16.11-41 6.27-40.88 26.84 12.88-.76 12.38-2.38 22.43-6.07 3.48 29-99.22 29.05-66.07 2.8 11.39 4.68-9.92 17.62 17.18 12.07 15.93-3.25 24.12-3.05 19.3-22.4-1.74 1.17-12.14 9.75-15 3.43-4.79-10.73 36.78-9.74 10.61-37.39-5.59-5.91 9.48-4.52 8-12.71 13.22 3.84 10.69 26 18.91 35.91Q249 448 241.93 440q4.95-15.33 24.36-10.63c12.9-8.2 29-10.37 42-19.49 19.74-13.91 29-30.23 36.37-53.82 1.26.39-63.47 93.09-84.26 66.56 6.76 8.63 52.94-62.51 22.25-58.05-6.11.88 1.05 13.5 1.06 16.38-13.05 5.32-10.27-32.39-8.45-35.16 9-13.63 49.47-13.63 63.28-12-18.73-14.34-48.29 11.38-65.13.65-8.6-5.48-4.76-24.61-18.93-32.78-13.51-7.79-46.82.79-57.79 13-5.88 6.53-15.17 59.88-4 56.88-3.48-17.1-2.49-25.16 6.16-33.13 21.29-19.63 16.52 5.52 30.29 2.88q-5.37-6.53-2.61-14.05c12.78-4.8 8 21.94 16.49 27.67-1.23-4.26.17-6.87 4.21-7.86-5.76-1.05 23.57 10.57 21.27 5.34a15 15 0 0 1-8.79 11c5.5-.38 7.55 1 6.12 4.13-33.12 2-22.18 31.81-51.32 47.45-26.29 14.11-54.28 15.68-80.79 36.56-5.79 4.57-40.93 47.14-47.6 47.14-18-104.59 15.89-227.82 77.49-311.94 57.84-79 146.54-134.1 242.8-150.21 127.35-21.33 266.33 6.92 362.73 96.58 42.86 39.9 79.59 87.17 99.64 142.81 18.46 51.27 32.28 143 16.42 194.85a1098.72 1098.72 0 0 0-132.51-58.2c-8.21 22.09-7.77 47.9-15.36 69 .12-.32-12.47 44.83-18 21.09-.47-2 14-46.68 15.85-56.08 1.93-9.85 13.13-31.08 9.26-39.86-15.74-35.74-28.06 23.12-29.48 28.1-14 .92 7.9-30.66 6.62-38.13-.3-1.8-10.23-14.56-11.25-10.19q-2 5.64 2.9 8c-14.85 5.57-25.4-9.21-36.84-13-15.12-5-5.72 9.31-15.76 9.33-18.21 0 14.31-36.35 15.59-26.63q-19.5-6.24-21 8.86A15.94 15.94 0 0 1 649 358c-13.83 14.88 5.19 12.93.92 25.64-2.9 8.65-20.55-18.94-21.08-21.13-2.09-8.78 13.18-20.41 14.55-27.79-20.66 1.88-41.81 26.68-42.8 45.77 40.5-.21-3.21 20.06-.89 36.81 17 1 12.39-1.81 34.38 6.1 3.38 1.21-6.61 8.56-9.52 6.08q-5.94 21.46 12.13 17.19a106.26 106.26 0 0 1 17.51-3.06c9.64 3.45 47 19.72 52 15.71 3.16 5.56 2.84 44.93-5.51 45.19-1.54-4.06-13.74-23.85-21.18-17.49 7.36-6.28 47.33 59.09 15.54 52 1.43 2.07 8.62 7.09 8.08 10.07-1.59 8.74-82.76-18.81-89.48-20.9-2.93 17.88-8 50.43-24.75 57.93-22.73 10.2-67.29-19.29-93.4-5.63 13 10.35 47.74.75 64.52 4.33 20.47 4.36 19.57 13.44 30.68 18.39 28.73 12.8 69.55 11.3 105.68 11.56 32.06.23 64.11-.06 96.17 0 17.87 0 77.33-9.89 89.9 1 20.5 17.78-9.19 112.22-2.3 140.49-28.32-2.08-9.43-2.19-23.6-12-3.74 18.68 3.34 33-22.11 21.34q5-8 15.18-8.51c.23.44-35.25 4.06-37 5 2.48 6.47 2.68 11.48 1.4 18.27 9.59-1.86 7.14-5.56 13.52 2.81 12.21-13.74 33.31 7.27 33.58-.08.06-1.72-14.14-3-11.53-4.91 10.11-7.34 23.43-2.3 11.24-18.77q14.53-3.84 18.68 9.77a10.36 10.36 0 0 0-8.73 4c-2.58 13.33 20 9.29.3 17.19 15.88-6.38-2.19 25.88-5.85 32.22-20.45-16.07-29-.54-58.59-3.65-9.37-1-30.83-6.07-38.1-11.89-.28-.22-22.4-23.9-14.79-22.45-5.7-1.08 4.62 29.28-23.19 25.29-33.43-4.8-7.68-12-4.6-26.14 1-4.42-9.84-10.57-10-20-4.21 10.17-37.52 17.78-37.64-5-26.29 5-32.23-30.58-37.93-31.16-23-2.31-15.14 34.06-33.18 42.71-13.81 6.62-43.06.84-54.47-10.18-4.72-4.56-11.72-27.3-13.47-28.1-6.5 19.08-15.84 37.59-40.88 33.6-1.23 24 22.16 28.65 41 37.09-.08-13.62 38.89-32.28 53.64-25.47 12.74 5.88 17.33 24.23 8.29 32.84-11 10.53-24.94-2.82-36.7-3.1-31.87-.76-70.27 7.89-99.6-1.27-4.21-1.32-35.24 1.53-21.71-20 5.9-9.41 29.63 4.55 40.69 10.19.43-2.06-26.9-22.97-8.44-27.44zm22.56-59.05c-1.07-7.76-10.58-8.78-11.17.27q5.54-4.47 11.28-.37-1.35 7.28-8.78 6.35a12.24 12.24 0 0 0 4.53 5.16c1.11-.82 20.37-13.12 4.14-11.41zm196.07-3.07q-2.27-4.8-7.18-2.67c1.81 5.58-1.1 8.42 7.27 2.56.19.73-7.33 16.11 1.75 13.9q15.24-19.38-1.84-13.79zM241.55 690.2q7.3-8.54 12.4 1.32 7.23-6.72 1.49-16.21c2.09-1.9-19.05 15.47-16.67 19 10.89 16.38 4.3-8.46 2.78-4.11zM198 730.42q-1 10.25 8.56 9c2.79.11 2.93-20.38.31-17.91Q195 736.17 198 730.42zm420.18 9.08c5.28-3.1 4.45 10.08 6.33-11.85-14.03.99-25.15 16.83-6.37 11.85zM409 492c-16.31 5.07.83 45 1.21 45 1.56-12.1-14.26-56.75 13.33-45.36.2-.65-21.6-22.88-21.5-4.23q3.67-4.03 6.96 4.59zm323.52 274c.05 8.85-9.39 5.71-2.93 11.11 12.26-16.44-5.61-19 15.66-29.33-4.73-7-14.17-3.22-12.53-12.79-6.88 2.89-15.85 33.39-7.92 36.48q.2-7.84 7.72-5.47zM590 724.51c.37 10.84-4.57 15.61-14.39 16.45 18.64 14.48 31.59-7.43 21.86 22.12 25.06-5.38-4.26-28.16-5.67-35.65 8.12 2.58 12.2 2.75 17.66-3.07-28.86.15-9.58-12.15-23.68-21.12-2.12-1.35-13.28 5.72-11-3.82.35-1.44 7.32-12.88 9.3-17.06-6.07 2-7.24 3.27-6.18 9.1-12.19-3.65-40.54-2.5-32.32 13.1 20.27-22.18 43.06 11.74 10.32 15.22 2.54 12.15 13.27-3.14 18.82 7.22-7.55 8.41-12.19-7.87-12.61 4-.4 11.19 25.6-6 27.89-6.49zm-24.25-452.64c-.69 1.54-117.75-14.56-61.31-54.18 9.73-6.83 26.8-.9 37.34-8.13 7.6-5.22-1.31-13.68 4.23-18.73 3.61-3.29 31.33-26.21 33.06-26.51-9.13-8.32-19.83-11.91-29.66-19.38-19.38-14.74-20-25.68-28.4-39.5 2.25 3.71-34.52-57.49-33.38-57.13-9.08 20.87 12.49 34.2 19.15 49.78 4.48 10.48 5.39 21.11 8.77 30.37 2.47 6.76-1.58 17.26.61 24.62 1.38 4.62 20.45 2 20.54 13.19.15 18.33-19.08 31.43-32.84 38.76-10.92 5.82-38.14 4.9-45.05 16.07-13.91 22.5 16.48 27.42 14.69 41-2.66 20.22-21.25 18.42-30 31.42-16.86 24.95-10.18 5.38 1.25 33.27 9 21.93 9.74 31 39.42 47.21 22.05 12.07 47.45 8.14 67.76 17.13 33.81 15 5.14 5.48 6.69 25 2.07 26 6 36.05-15 62-4.5 5.56-31-4.54-16.27 20.46 9.36 15.86 33 7.89 45.94.57 6.35 15.27-18.09 16.91-31.19 17 8.19 9.77 25 18.46 31.28 28.36 8.25 13 3.07 16.45 9 34.33 21.46-19.56 29.78-51.39 13.51-77.65-7.25-11.69-42.43-15.53-45.33-24.11-3.38-10 30.69-29.88 32.79-34.86 26.32-62.34-21.35-47.41-61-62-31.16-11.47-59.45-35.21-55.22-70.14 5.3-43.78 61.39-38.03 98.62-38.22zm-230.08-27c9.57 25.35 30.23 2.88 41.47 18.74 18.18 25.62-8.67 19.25-19.11 37.27-15.12 26.07-2 34.6-5 61.27-1.76 15.62-20.78 48.39-16.58 62.48 31.58-34.83 16.33-38.49 23.78-80.79 3.6-20.48 13.62-31.51 27.84-46.47 13.26-14 50.68-27.93 57.58-38.95 9.64-15.41-102.36-3.13-27.84-43.79 39.11-21.34 75.55-24 39.22-73.33-2.55 32.65 2.17 52.51-41.25 65.64-22.35 6.75-68.78 13.19-80.11 37.93zm55.88 457.18c2.29-7.57 5.51 50.72-1.28 43.33Q402.55 752.07 410 735a10.07 10.07 0 0 1-9-6.85c19.05-.87 8.65 10.75 30.16 9.34q1.28-3.32 2.26-6.74-15.11 4.37-14.84-8.19c20 1.34 35 14 54.87 16.5 27.62 3.54 33.05-11.2 32.24 20.49 19.33 4.39 3.39-27.49 3.9-38.45-14.74 5.07-82.16 16.27-84.47-7.33-1-10 38.41 12.64 27.28-12.12-4.07 5.54-24.71 7.54-28.61-.31 3.79-1.8 15.32-10.65 6.29-17.73q-7.22-1.8-12.1 3.32c.79 3.93 7.07.58 8.25 4.42 2.71 8.83-10.77-1.17-9.86-.35.51-2.09 6 36.93-4.16 30.07-6.08-4.11-1.59-6.69.58-12.22a19.7 19.7 0 0 1-12.56-4.85c34.25-8.4-20.68-14-26.23-23-11.23-18.35 7.71-30.18 19.72-36.23-13.18-24.78-82.91-33.5-71.07 2 34.21-28.79 58.78 76.27 9.53 36.28-.9 25.41 53.86 2.24 70.13 15.79a10.06 10.06 0 0 1-10.76 3.21zM749 667.19c.33-3.67-9.44 2-8.59-4.22 1.38-10.14 16.75-4.86 18.25-12.4 4.9-24.55-66.6-23.43-74.36-18.92-24.82 14.4 3.42 38.52-2.76 65.67 36.12 15.1 32.27-33.04 67.46-30.13zm-182.17-4.89c7.46-11 32.84 4.12 37.75 10.05 10.6 12.81 10 26.54 5.79 47.93 10.75-5.94 22.22 3.79 33.19-5-17.08-9.72-9.35-9.13-22.43-7.49 1.34-12-10.37-18.25-6.62-30.41 6.76-21.91 10.44 1 22.31-14.52-3.2-1.63-21.24 3.11-20.64-3.42a24.9 24.9 0 0 1 17.21-10.34c-20.39-31.05-111.14-23.25-66.56 13.2zM496 490.58c-2.78 65.35-32.36-7.81-65.11 28-18.83 20.61-14.2 25.52 12.41 31.93 48.84 11.79 15.56-9.35 37.43-22.68 4.27 35.52 21.19-19.55 24.72-21.07-11.45-5.48 4.55-12.03-9.45-16.18zm-25.67 199.91c11.76-16.9 11.86 8.52 17.18 7.69 1.4-.22 10.24-31.11 10.45-30.78-9.78 3.33-31.19 28.54-25.79-2.62a45.92 45.92 0 0 1 27.1-34.52c-6.76-1.42-48.72-7.83-55.13-3.09-34.47 25.48 5.22 11.67 3.84 30.77-.32 4.42-9.25 37.16-7.34 38.34 4.51-4.61 20.83-7.6 29.69-5.79zm356.63-23c46.45-43-2.64 67.6-15.73 21.36a9.77 9.77 0 0 0 3.27-10.31c-7 .81-15.87 15-10.73 22.13 15.24-15.21 21.53 5.73 31.05 7.71-.19-14.43 18-26 25.24-43.06 4.94-11.65 28.62-6.87 8.41-30.43-3.61-4.2-68.42.72-67.08-.58-14.28 13.82-6 15.09 1.3 23.68 3.04 3.54 16.81-11.58 24.31 9.46zM258.51 623.9c-28.76.15-50.56-5-70.45 17.18 20.8 14.92 48.48 12.07 66.92 24.15-.14-25.63 23.23-12.14 3.53-41.33zm493.84 95.86c-15.52 2.88-14.42-18-17-24.94 2.68 7.14-18.27 37.24-31.72 41.29s-19.93.83-28.06-14.15a13.15 13.15 0 0 1 9.54-1.88c-9.68-25.07-20.32 1.46-36.32 7 1.94 3.92 40.48 2.25 29.78 14.49 18 1.35 24.1-2.17 24.2 18 20.54-13.43 22.63-30.9 25-51.11 24.23 6 3.88 20.23 8.92 28.71 6.5 11 23.76 10.94 23.87 31.76 22.3-18.39 24.49 24.82 47.46-.18-8.83-1.89-.2-17.32 2.19-19.41-3.72-5.12-28.19 15.52-42.53 8.68-14.98-7.16-17.86-24.02-15.33-38.26zm-503.5-17.12c3.48 16.56 10-1.22 10.62-7.3-17 3.46-28 11.56-24.44-9.6-16.72 12.24-25.31.2-36.58 23.8a37 37 0 0 0-7.09-9.48c-12.34 25.23 6 8.9 18.32 10.55 3.27.43-2.07-14.63-2.32-14 9.19-23.73 8.8 22.47 8 19.55.42 1.49 6.72 37.51 7.82 29.94 1.26-8.75-36.05 15.87-33.85 13.54a45 45 0 0 0 12.64 0 9.85 9.85 0 0 1-1.27-8.81c5.16-3.32 19 18.52 16.45 19.74a16.42 16.42 0 0 1-13.52-2.36c17.37 54 29.26-47.77 35.37-42.21-4.11 14.38-16.64 7.42-16.74-3.76-.11-11.75 19.09-7.35 3.83-14.08q7.33-11.95 22.76-5.52zm34.45 17.09q-5.62-5.49-4.14-12.59c-4.47-1.29 32.78 14.07 26 8.52 12.91 10.52-8.52 8.82-10.8 10.55 1.39 4.22 12.05-1.82 11.49 6.28-.4 5.79-9 6.76-12.85 8.41 11.58 8.22 15.35 8.16 14.12 24.39 16.05-4.7 2.91-21.68 34.92-21.85-4.4-1.63-26.64-5.33-29.4-11.27-5-10.78 34.49-.24 34.61-.12 4.5-14.71-18.24-13.07-20.91-14.67 3.8 2.28-26.58-14.86-21.15-14q-7 3.76-7.11 12.83c-.22-6.63-7.16 1.56-1.71-12.82-8.35 1.06-31.79-5.85-30.54 6.21h6.7c-7.92 11.78-2.87 11.57 10.77 10.13zm567.7 5.68q.3 7.35-5.62 10c-12.69-.5 7.9-19.53 8-20.08-5-.89-31.23 4.89-31 2.63-1 10.33 14.63 4.87 15.44 11.75-6.84 9.51-9.14 17.19-20.68 9.26a46 46 0 0 0-.56 12.67c13.9 8.53 16.33-24.11 28.82-7.86.09-8 14-9.21 20-11-.07 2.47-3.49 16 2.88 14.54 2.65-.63 1.8-18.66 8-15.39a49.41 49.41 0 0 0-25.28-6.52zm-182.49-395.8c.27 3.13 29-1.51 33.8 1.21 12.46 7.13 9.77 20.72 15.81 32.36 47.65-52.65-122.45-54.23-107.47-30-1.52-2.47 60.49-17.91 72.38-7.88q-5.86 6.46-14.52 4.31zM83.81 757.07C88 765 63.35 774.21 74 790.12c2.82 4.22 4.77-11.16 5.24-11.26q9.06.42 5 8.66c17.42-.1-2.86-15.29-2-19.2a16.09 16.09 0 0 1 11.76-.06 12.61 12.61 0 0 0-4.24-7.54c9.41-1.39 13.89-5.54 23.78-4.47 4.27-13.48-15.55-2-17.8-3.49q-.24-10.54 10.65-6.46c-3.53-8.36-21.32-4.86-30.92-9.06.6 3.31 8.83 17.31 10 15.86-6.3 8-8.48-5.7-12.14 5.06q5.86 5.31 10.48-1.09zm249.33-92.31q-13.25-4.57-9.62-13.19c-19.25 5.44-37 1.11-56 5-2.45-2 43 10.2 43.52 10.26 12.92 1.72 5.31 7.2 14.26 9.21 10.56 2.37 21.13-16.83 11.72-20.64zm459.6 84.9c3.17-4.63 4.64-18.66 1.59-25.85-15.71 11.74-26.12 6.84-32.45 20.85 6.33-14 21.58 11.46 21.71 11.57a19.31 19.31 0 0 1 .68-12.79q7.32-1.6 8.47 6.22zm-598.11-349c7.67 2.52 28.85-15.37 33.09-19.83-8.9-6-59.51 32.28-68.87 38.36 11.23 1.81 30.82-9.06 35.78-18.58zm266.62 79.62c-8.64 2.91.82-7.75-5.53-10.11-6-2.25-15.44 12.81-27.21 11.86.41 11 46.93 7.6 47.88 3.6zm326.88 297.18c-3.25-1.74-30.34-15.32-23.18.2q2.38-5 7.23-1.85c-.54-.32-26 20.24-3.63 19.17 4.66-.23 16.77-12.67 19.58-17.52zm-402.24 10.95c5.33-2.73 14.45-23.67 22.24-21-8 25.44 13-7.46 7.87-3.35-4.11 3.28-23.5-1-29.28-1.49q6.28 13.5-.83 25.84zM523 675.68c12.82 1.6-5.67-19.6-7.65-20.07-7.45-1.73-22.82 26.77 7.65 20.07zm335.07 31.63c2.55 11.06 9.55 8.38 15.77 17.75q7.74-2.31 8-12.66c-12.36 2.61-8.21-6.95-2.87-10.25-15.55-13.72-7.75 5.14-20.91 5.16zM198.41 385.5c16.66-10.71 9-14.19 18.9-30.91-9.51 1.23-12.22-10.89-18.8 1.69a13.39 13.39 0 0 1 8.75 5.65c1.5 7.66-19.8 6.9-8.85 23.57zm-25.12 256.7c-.71 4.55-31.82-18.39-31.77-18.41-.25 14.1-6.63 22.15-6.58 31.66 15.97-6.38 20.22-16.12 38.35-13.25zm336.58 56.51l-6.57 5.49c2.2 12.49 15.13-6.28 17.47-5.52 8.4 2.72-6.43 11.46-1.58 17.25 27.17-10.61-7.71-28.79-9.32-17.22zm-90.59-132c27-.14 15.4.05 20.3 12.69a13.46 13.46 0 0 0 11.34 1.34q-7.21-8-.18-15.94c-9.23-4.09-25.16-6.61-35.92-9.07zM277.77 679.74c-22.06 14.8 40.65 16.13 18.82 5.25-5.59-2.81-13.36-1.78-18.82-5.25zm492.32 18.91c-17.91 25.51-19.61-2.73-11.69 25.67 3.37-7.66 16.71-17.25 11.69-25.67zm-664.53 61.9Q94 767 95.23 780.22c26.23 3.12 19.04-9.99 10.33-19.67zm154.61-16.61q20 9.28 25.39-6c2.3-7.33-20 .92-4.12-10.45l-12.12.07c1.57 2.67 6.26 12.42 4.26 13.68-10.58 6.76-6.46-14.01-13.41 2.7zm283.3-115.44c-22.91-15.22-2.83 26.64-2.42 17.15-.06 1.2 11-9.19 9-14.64q-3.64 9.09-11.57 6.78zm5 107.33c-13.27 22.56 10.39 11.76 16.76 12.57a36.94 36.94 0 0 0-16.75-12.57zM104.21 656.7c6-8.48 8.3-8.46 8.83-18.69-8.22 3.75-31.9 9.23-25.31 21.06 9.9-7.92 15.39 9 8.66-9.18q10.7-3.3 7.82 6.81zm371.84 126.85a71 71 0 0 0 5.82-8.08c12.49 8.69-14.37 17.8 16 7.23-3.37-1.94-27.21-30.13-21.82.85zm-169.67-99.2c2.69 27.7 8.71 2.79 18.87 7.16q-1.85-14.75-18.87-7.16zm-39.68 94.43q-6.78 11.22-19.43 8c8.25 4.58 16.81-4.56 18.43 6.24 12-7.63 15.27-6.94 12.84-23.53-6.18-.95-1.63 16.12-11.84 9.29zm520.6 18.06c2.41.77 27.51-6.55 26.6-5.59-14.9-18.62-16.77-6.4-26.6 5.59zm76.45 20c3-2.35-1.15-19.33-5-21.09-6-2.75-9.2 19.1-8.71 21.74 4.86-3.91 9.63-5.93 13.71-.63zm-555.88-32.71c7.19-5.69-12.88-9.7-16.77-7.45 13.43 15.25-8.8 2.23-5.05 14.15 3.02 9.6 15.59-7.48 21.82-6.7zm50.61-351.37c-3-4-49.38-3.86-51 3.45 16.8-4.29 34.35 4.63 51-3.45zM699 488.15c8.62-15.79-5.87-19.71-15.72-7zm123.42 326.78c-5.22-12.39-33.37-7.19-29.6-.57 5.7 10 12.71-3.74 14.27-7.09q4.07 11.06 15.33 7.66zm-632.91-49.31c-11.14 4.88-46.6 18.82-21.07 26.31.92-1.51-5.83-9.5-3.65-10.26 13.44-4.67 21.91-6.11 24.72-16.05zM365 712.52c-11.84 18.18 4.67 19 12.43 2.17zM157.38 683.8c-26.59-12.37-13.41 12.15-23 14.64 13.34-3.48-.49-8.27 7-11.12 18.55-7.12-11.07 18.28 16-3.52zm277.42-23.12c.6-4.42-41.54-6.06-49.75-1.07 2.12 3.94 49.18 1.07 49.75 1.07zm-312.35 34.94c1-1.4 26-30 11.37-33.42-5.27 20.69-9.38 8.1-20.07 20q12.33 1.55 8.7 13.42zm119.25 11.52c-9 16.41-3.73 17 12.2 15.67a38.58 38.58 0 0 0-12.2-15.67zm32.76 53.26q10.46-1.26 10 9.58c7.79-30.15 15 .57 18.49-9.72 5.7-17.01-26.32-1.26-28.49.14zm515.6-46.86a15.73 15.73 0 0 0 8-3.22c-4-11.89-18.35-16.07-22.54-4.11q9.59-.7 14.54 7.33zm-286.2-83.09c3.53 2.38-8.36 5.94-9.56 12.06 8.87 0 16.58-2.08 24.86-2.44q-4.3-10.35-15.3-9.62zM82.13 672.82c-1.73 6.23 19.27 2.35 20 1.93-8.84 3.65-20.3-13.19-26-18.11-4.59 10.12-2.78 10.22 6 16.18zm727 64.89c24.8 2.53-1.11-23.7-7.49-11.84q-4.2 10.7 7.47 11.84zM586.2 683.08c7.53 8.35 5.12.85 14.88-1.45a84.55 84.55 0 0 1 .34 8.86c22.3 1.49-3.44-17-2.48-17q-8.28 1.16-12.74 9.59zm259.39 17q-8.55-5.67-7.41 4.7 5.88 6.15 13.9 3.85a32.32 32.32 0 0 1-4.85-6.77q5.19-3.71 11.21 1.4c2.69-9.53-8.92-1.27-4.44-10.35a12.12 12.12 0 0 0-8.41 7.18zM568 678.19c1.26-7.3 28-5.66 21.51-12.2 1.58 1.6-18.78-3.06-17.07-3.64q-7.12 6.38-4.44 15.84zM86.09 731.14q8.66 11.54 13 2.55c.84-2.75-21.82-15.44-24.68-8q-.41 10.13 11.68 5.45zm667.43 49c9.91-8.88-11.81-30.51-17.59-17.53 5.32.49 8-2.94 10.81 2.75a12 12 0 0 0-6.88 4.64c-1.37 3.48 15.47 1 13.66 10.11zM491 761.44c7.39-13.89-6.8-12.08-13-17.51-.32 6.36-3.64 11.56-2.13 17.57a21.64 21.64 0 0 1 15.13-.06zm187.27-263.57c-2.29 11.37 11.16 18.25 21.33 18.48-.99-9.59-14.15-13.23-21.33-18.48zm-540 217c2.4-8.06-3.63-6.65-9.1-1-6.4 6.65 8 18.73 15 7.1-4.01-1.88-22.17-7.74-5.9-6.12zM681.35 767c6.37 6.28 5.54-7.42 10.43-7.7 9.76-.55-13.37 9.65 1.91 11.73 7.34 1 3.51-14.76 1.53-15.81Q683.52 754 681.35 767zm-529.88-23.84l-35.82 2.38c6.94 8.32 29.08 4.99 35.82-2.38zm384.22-28.82l3.63 10c6.21 4.64 14.5-14.73 9.21-15.93-5.01-1.14-5.16 9.34-12.84 5.93zm-78.8-155.18c1.66-10 15.88 28.55 10.94 24.2 20.69-16.02 3.47-23.46-10.94-24.2zm-320.78 75.72c-4.75-1.89-6 13.21-14.51 13.78.08-2.16 4.31-11.71-.37-11.44-5.53.31-4 13.68-1.82 15.64 8.74-2.05 11.31-4.28 18.25-6.73q-9.51-3.52-1.55-11.25zm9.54 122.06c-5.52-3.66-16.32-3.06-19.79 2.18q6.69-1.92 11.15 3c.81 1.63-6.12 8-6 10.89a31 31 0 0 0 14.64-16.07zM729.36 689c12.25-.48 9.24-14.69 6.83-20-9.87 3.71 3.27 9.92-2.79 14.37-3.68 2.7-5.74-3.58-6.32-5.61q-14.34 4.1 2.28 11.24zm76.12 19.62c2.8 3.83 19.45 2.7 19.08-4.21-.5-9.41-17.96-.98-19.08 4.24zm-344.22 34.51c-12.89 1.15-5.51 15.12 1.39 18.7 1.07-2.61 8.91-15.22 7.23-17.89q-1.17 9.81-9.2 7.83-6.3-3.91.58-8.64zm59.93-11.66q-3.11 4.46.36 8.6 4.19-5.84 9.52-1.09a18.37 18.37 0 0 0-3-17.61q-10.24-1.1-13.43 9.54c5-2.61 10.33-9 15.25-1.74 6.11 9.02-7.13 3.75-8.7 2.3zm-304.71-48.08q6.3-5.75 12.17.66 3.32-7.6-4-12.63c-3.82 13.94-16.25-2.63-16.17 13.78q3.28-5.67 8-1.81zm109.21 65.92c-2.63-4.09-7.19 15.1-1.78 14.9 2-.07 14.24-10.62 14.17-13.33a14.28 14.28 0 0 0-12.39-1.57zm31.88-40.47c-4.63 10.34-16.91 7.08-9.66-5.71-24.73.13 10.63 33.15 9.66 5.71zm-117.42 77.23c-4.23-4.58-6.3-11.9-13.51-4.29 2.47-2.61 12.72 17.24 20.72-5.31-6.28-2.98-3.06 7.45-7.21 9.6zm502-94l.07 13.79c14.7-12.4-4.52-7.61 19.95-9q2.36-14.86-20.03-4.79zm-571.72 71.2c-1 .26 12.83-2.21 6.43-5.63q-10.08-5.76-21.35-.24c10.08 10.6 4.22-.4 14.91 5.87zm658-80.38q-5.67 1.25 4 5.41c5.8 2.33 6.09-20.51 2.12-23.09-8 10.63 2.86 13.54-6.13 17.68zm-253-81.53l-3.97 7.64c9.73.82 17.08 13 17-6.89-11.46-1.11 1.12 16.68-13.07-.75zm107-85.33c.05 9.77 9.92 10.11 16.67 14.62Q698.07 517 682.43 516zM153.76 656.09c7.19 2.09 36.75 2.77 42.83 1.14-2.59-1.89-40-3.23-42.83-1.14zm104.3 96.47q-5.76-13.18-13.62-6.23c-7.63 10.19 10.05 8.08 13.62 6.23zM140.5 785.28c2.95.77 16.1-5.07 16.94-7.76-9.23-5.33-18.11-3.58-16.94 7.76zm27.44-88.2c1.72-9.45 18.29 5.18 12.24-11.48-1.64-4.51-15.63 4.85-12.24 11.48zm555.15 90.82c-4.54 3.38-5.86 15.79-4.8 21.13-.24 0 11.23-13.11 14.51-15zm-457.45-56.81c1.26-2.59-30.83-6.33-10.61 11.64-.03-1.86.73-22.86 10.61-11.64zm75.77 41.53q-8.88 14 7.09 14.27c-.04-7.55 2.64-15.21-7.09-14.27zM503.7 799.4l-.09-17c-8.06 8.17-2.76 9.92-15.38 10.68a21.2 21.2 0 0 0 15.47 6.32zM86.23 709.94q8.11 6.91-1.18 12.13c5.11 1.06 17-10.46 12.69-16zm471.4-87.86c6.74-8.25 9.1-7.61 9-18.68q-5 7.25-13.53 5.13c7.9 6-5.1 7.4 4.53 13.55zM102 702c2.87-7.6 7-10.27 14.94-10.44-.38-7.09-30.88-3.35-14.94 10.44zm120.75-34a67.77 67.77 0 0 1-9.28-11.28c-4.14 5.65-5.66 5.27-6.05 13.53.39-7.78 10.94 1.5 15.36-2.25zm101.59 121.28c1.38-9.08 1.08-14.86 11.09-12.13 1.85-16.29-27.17 11.02-11.09 12.13zm19.66 6.18l-10.6-11.15c-11 17.5 2.72.5 2.55 15.81zm-179.06-82.41c-.81-8-13-6.75-19-7.62q.09 21.17 14.51 13.81-9.18-2.13-10.67-11.38zm502.59-64.94c-10.35 1.34-20 .48-30.3 1.46.85 5.78 27.84 2.22 30.3-1.46zM241.11 669c-10.5-6.8-3.72 23 2.73 10.88q6.16-6.16-2.73-10.88zm192.68 77.72l-22.52.12c9.63-.32-1.73 16.25 9.47 12-9.74-6.84 11.81-10.63 13.05-12.16zM488 649.74c-4.29-5.26-5.84 3.7-5.31 7.14 1.44 9.46 14.57 1.52 16.57 2.85-4.48-15.66-7.48 1.36-12.69-1.51q-11.41-5.76 1.43-8.48zm241.21 137.48l14.12-2.33a13 13 0 0 1-4.62-10.42q-8.82-.73-9.5 12.75zm-265.9-291.55c-.56-2 3 15.92 11.66 1.57a12.11 12.11 0 0 0-11.66-1.57zm133.14 208.41c3.43 2.67.54 21 9.07 14.16 6.91-5.58-4-15.68-9.07-14.16zm-114.1-41.73c-19.73 18 5.52 10 4 12.2q2.2-7.35-4-12.2zm234.78 46.12l4.18-18.92c-1.86-1.47-3.65-.79-5.39 2 6.77 4.02-11.19 13.81 1.21 16.92zm-604.66-5.12c0 .06-7.69 21.76-.2 16.64 6.45-4.41-6.92-9.81 7.87-9.89zM220.13 400q-6-6.21-12.61 6.06 14.32 13.81 12.61-6.06zm355.93 385.41c-5.54-2.18-11.41 11.36-8.09 14.36 16.14-9.04 2.44-.29 8.09-14.36zm-397.82-76.09c-7-11.26 3.24-3 8.91-12.94q-6.43 6-14 1.36c.38.93-1.15 20.46 5.09 11.58zM439 736c2.63.23-3.38 24.72 12 2.18.72-1.09-10.5 7.66-12-2.18zm97.45-133.33q-6.76 11.18 7 7.94c-8.47-6.45-5-7.32 3.31-4.12-.55-10.14-21.45-9.37-10.31-3.85zm198.32 205.25c.9-13.73 11.57-7.64 2.66-17.87-3.64 6.68-12.01 13.68-2.66 17.87zm-573-113c-5-2.28-15.51 1.44-16.51 7.15 8.56-6.77 10.97 4.8 16.54-7.2zm405.64 7.62q-7.05 15-11-3.21c-9.1 2.1 19.68 26.37 11.03 3.16zm-308.48 50.11c5.23 8.61 14.5 6.86 18.1-1.8zm504.69-99.53q9.58 5 15.34-2.48c-1.9-1.2-18.33-4.91-15.34 2.48zm-95.21 92.93q-5.82 3.08 1.3 10.33c10.94-6.72 10.61-5.38-1.3-10.33zm-389.7-386.34a14.21 14.21 0 0 0 12.64-3.92c-11.87-10.39-11.43 2.21-12.64 3.92zM166.22 741.27c-8.58-9.65-8.9 7-5.52 6.93zm155.64-26.77c-2-8.33-2.22-10.32 4.67-15.52-4.95-.61-13.38 7.25-13.51 12.9zm52.24 36.6c11.6 12.9 10.73-18.1-.74-9.1 5.64 3.82 10.46 5.1.74 9.1zm402 39.79c-.87 11.51 6.61 7.29 10.32 0zm33.69-135.41c-6.59-.69-3.39 17.87-1.08 15.06 3.13-3.85 2.48-10.72 1.04-15.06zm-93.91 69.74c.36 1.14 11.84-11.42-3-10.62q-1.37 5.67 2.96 10.62zM521.6 632.06c1.08-1.66 8-7.31 6.65-9.87-6.92.03-16.25 4.16-6.65 9.87zm-331.47 117c-.32-1.77-3.41-14.76-2.9-14.79-10.76.8 1.39 9.57-5.65 16.67zm124.5 53q3.76-5.42-1-12.54c-13.63 8.39-13.73 6.48 1 12.57zM448.08 499q1-13.33-20-3.32c.92 5.32 17.28 2.53 20 3.32zm-94.56 267.64c5.12-1.46-4.28-15-11.06-6.34zm41.59-53c-5.81-2.88-6.23-2.65-12.67 6.72 5.56.97 9.84-1.19 12.67-6.74zm422.3 1c-5.27 8.88-8.7-2.84-14.82 1.13 4.17 5.33 15.25 10.8 14.82-1.1zM699.18 345c.92-6.2-14.27-3-18.37-3.48a42.19 42.19 0 0 0 18.37 3.48zm-520 440.58c-11.22 4.21 8.29 7 12.5 5.71q-3.5-6.62-12.51-5.69zm199.08-62.05c-3.64 11.56 9.84 11.66 13.37 5.4q-9.1 3.07-13.38-5.38zm-232.78 41.41q10 7.54 9.22-1.66-3.33-8.92-9.22 1.66zM822 656.25c-5-1.46-8.72 11.86-4.79 13.43q8.23-1.23 4.79-13.43zm19.15 131.3c2.08-7.36-7.8-4.49-10.51-1.59 1.58 3.74 6.76 1.84 10.49 1.59zM193.21 771l10 11.32c.46-8.81-2.82-12.62-10-11.32zm258.4 16.77q-8.16.09-.11 12.45 9.65-6.68.11-12.49zm-329 12.75c-5.26-.44-1.73 16.21 6.44 7.12zm308.76-37.64q11.81 6.4 7.81-5.93-6.18-3.34-7.76 5.89zm221.25-100.3c5.36 5.39 11.84 3.94 17.92-.1zm-502.61 66q-15.8 5 2.47 6.44 4.7-2.89-2.42-6.5zm97.37 38.76q3.48 6.36 10.17-1.08-6.22-8.85-10.12 1.02zm324-155a13.19 13.19 0 0 0-2.38 11.33c5.48-1.09 7.73-6.82 2.38-11.36zm-108.61 80.74c-3.24 6.65 10.7 7.81 13.7-1.81q-5.66 7.91-13.7 1.81zM106.2 727.4l16.68-.09c1.81-5.66-16.81-2.03-16.68.09zm29.23 56.81c-1.87-7.1-10.88-8.33-16.05-6.25zm418.69-187.32c-3.59 5.29 11.27 10.78 8.49 1.81a8.58 8.58 0 0 0-8.49-1.81zm43.82 121.26c-8.25-3.86-3.81-6.24-3.85-13-5.68 9.02-6.15 15.22 3.85 13zM501.7 743.5q-6.78-6.81-15-1.47c11.96-3.67 4.3 8.79 15 1.47zm-30-16.57c5.54.5 3.79-17.39 2.07-16.76a29.66 29.66 0 0 0-2.03 16.76zm274.62 71.81l-8.17 11.17q9.97-.39 8.21-11.17zm-348.51-41.15l-6.36-6.42q-6.45 12.72 6.36 6.42zm-17.74-53.15c-4.93-.49-9-3.83-12.69.65 3.92.46 8.04 4.91 12.69-.65zm-137.69 62.69q-3-5.43-10.3-.39c-.07-.36 5.49 9.58 4.1 8.61zm-5.22-16.32c-9.48-6.12-3 8.71-2.07 9.59zm579.61 47.33c5.55-1.9 6.68-5.42 1.29-8.46a15.3 15.3 0 0 0-1.29 8.46zm-378-26.87q-11.89-10.1-11.41.41 5.78 3.75 11.4-.41zm-8.58-188.15c1.84-2.92-6-7.92-7.88-5.66q.11 11.69 7.87 5.66zm-250.3 149.64l-10.34-5.83c.64 3.54 4.79 11.54 10.34 5.83zm13.94 70.18c-2.3.41-9.39-1.42-10.24 1.38q7.02 8.81 10.24-1.38zM849 672.71q-4.43-7.08-7.7 2.46 3.27 6.99 7.7-2.46zM159.89 803.28q13.25 12.22 9.81-2.56-3.54 8.81-9.81 2.56zm195-64.54q-1.42-6.5 5-6.65c-5.13-3.97-15.31 2.91-5.02 6.65zM95.32 724.23q10 1.71 5.56-6.33a7.55 7.55 0 0 0-5.56 6.33zm257.77 75.67c11 2.12 11.12 2.06 9.92-3.82zm-222.38-94.16c-6.75-6.68-6.75-6.68-10.36-.8zM658 705q-8.21-12.11-8.87 3.07zm-540.12 76.25q-5.72-1.59-3.78 7.13 12.38 2.62 3.78-7.13zm-16.7-114.76c2.91-1.93 8.49 0 7-6.23-4.29-.41-7.18.48-7 6.23zm736.58 134.82l9.67-3.19c-5.83-4.41-8.57-3.4-9.67 3.19zM461.35 699.87c-.2 0-3.89 18.58 7.36 8.8-7.52-7.04-2.96 17.67-7.36-8.8zm124.38 106.7q7-.12 5.94-6.84-8.46-.73-5.94 6.84zM248.92 674.83c5.55-3.8 5.44-6.22-1.53-9.75.61 3.78 1.04 6.65 1.53 9.75zm92.4 86.8c-1.84-1.87-6.49 3.93-7.52 5q6.27 8.37 7.52-5zm65.33-4q5.19-7.32-3.93-10.81c-7.43 8.83 4.02.36 3.93 10.85zm-36.55-5.45c-7.82-1.84-3.86 7.56-1.73 10zm-22-7.92q-6.6-1.78-3.8 10.4 9.3-.66 3.85-10.36zm-172.76-5q-5-1.44-4.89 7.13c9.72 1.46 4.98-.33 4.94-7.12zM533.77 673q6 2.28 3.57-6.15-6.45-4.21-3.57 6.15zm-312-318.5q7.37.35 1.54-8.73-6.88-.31-1.55 8.69zm221.64-252.8c3.18.72 6.61-13.52 3.15-14.29zM77 715.57c2.1-1 5.66-7.48 4.25-9.49q-6.99 2.58-4.25 9.49zm117.43 10c5.17-3-6.3-4.83-7.45-4.72q.54 4.91 7.49 4.75zM106 786.08l-8.49 1.58c4.49 3.87 6.32 3.55 8.49-1.58zm22.8-114.3q-8.34-6.88-6.7 3.7 3.64 3.42 6.72-3.7zm546.49 71.77c-.74-7-2.32-8.38-7.4-7zm-86.37 40.18c-7-3-3.24 6.41-1.92 8.29zM170.33 773.6c2.37-5.2-8.67-4.2-9.5-4.14q2.17 4.98 9.5 4.14zM569.41 745q-2.77 7.75 3.86 5.41 3.11-7.54-3.86-5.41z"/><path d="M736.27 522.11q-2.5-6.65 2-10.91c13.1 16.28 28.24 8.76 47.09 21.72-5.08 16.12-60.6 33.64-68.85 16.43-3.34-7 16.35-4 17.15-5.71-16.03-11.05-32.46-21.35 2.61-21.53zm-.53 21.65c-.28 7 26.81.08 30.54-5.28a67.2 67.2 0 0 0-30.54 5.28zM752.8 530l-23.92.13c4.44 8.4 16.95 8.87 23.92-.13zm-28.67 63.06c.87 16.75-86.58 10.39-88.4 3.29-7.61-29.81 83.2-4.23 88.4-3.29zm-610.67-4.01q12.63-6.57 25.6-3.53c1.38 9.69-34.44 11.73-38.91 11.2-2.39-6.18 8.51-6.51 11.07-7-.36-3.8-7.36 1.4-7.07-4.55.07-1.53 33.21-19.15 23.87-22.32 18.19-11.62 26.23-32.69 50.4-30.37 4.35 16.37-67.07 48.76-64.96 56.57zm726.32-45.74c9 8.82 51.86 42.9 42.36 52.74-5.9-3.35-91.41-9.9-91.43-9.71.83-8.3 64.24-8.12 72.17-5.4-3.77-5.72-30.94-32.86-23.1-37.63zm-491.12 46.54c-7.72 11.66-63.78 4-71 1 7.89-10.91 59.75-13.61 71-1z"/><path d="M158.89 589.83c-9.2-6.72 22.38-27.87 25.18-36.22 4.47-13.3-15.42-39.56-1.92-51 25.94 30.74-4.45 66.14-23.26 87.22zm57.79-10.05c8.51-10.54 23-1.75 24.71 9.57.84 5.65-23.13-8.61-24.71-9.57zM823.16 521q16.17-2.87 19.94 9.06c-7.66 3.18-34.32-2.93-19.94-9.06zM281.34 384.25c10.24 13.8-10.87 14.26-10.79 6.56q3.38-6.26 10.79-6.56zm-67.62 61.35q-2.26 7.83-10.39 7.41c-3.09-6.49 6.02-16.25 10.39-7.41zm-24.8 118.86a17.88 17.88 0 0 1 6.45 11.27c-2.59 5.69-10.51-5.73-6.45-11.27zm583.76-12.37c-.37 4.75-5 7.61-11.89 7.67-.94-5.61 2.85-8.15 11.89-7.67zm-574.15 29.57q8 5.75-.05 10.15c-2.06-2.74-6-9.36.05-10.15z"/><path d="M208.21 582.09q9.07 4.93-1.36 9.74-6.85-4.61 1.36-9.74zM781 499.86a7.15 7.15 0 0 1 4.87 7.71c-1.53 3.11-11.67-3.34-4.87-7.71zm-64.69 58.83q-4.9 10-9 0 6.41-5.93 9 0zM247.94 574.5q.45 10.54-5.18 4.36.06-8.04 5.18-4.36zm15.22-246.29q-4 6.5-6.85.58 4.86-5.98 6.85-.58zM655.7 545.56q6 5.9-.21 6.56-5.62-5.36.21-6.56z"/><path class="cls-1" d="M565.75 271.87c-37.23.19-93.32-5.56-98.62 38.19-4.23 34.93 24.06 58.67 55.22 70.14 39.68 14.6 87.35-.33 61 62-2.1 5-36.17 24.84-32.79 34.86 2.9 8.58 38.08 12.42 45.33 24.11 16.27 26.26 8 58.09-13.51 77.65-6-17.88-.78-21.3-9-34.33-6.28-9.9-23.09-18.59-31.28-28.36 14.13-.08 37.9-.86 31.19-17-9.66 5.48-32.87 15.11-43.61 4.59-20.95-20.51 9-22.12 11.79-25.66 5.07-6.46 21-15 23.68-27 3.65-16.51-8.87-21.77-8.61-33.33.34-14.69 29.81-9.68 3.85-26.73-14.07-9.24-51.59-4.46-70.61-13.86-31.52-15.58-35.63-27.23-45.06-50.32-8.8-21.54-19.52-8.11-5.55-31.15 7.36-12.13 30.92-10.19 33.42-29.36 1.89-14.54-19.32-18-14.95-36.63 4.47-19.06 23.81-15 39.79-22.47 13-6.06 35.11-14.82 36.24-32.65 1.1-17.14-13.84-20.64-19.51-35.93-4.4-11.88-1.3-26.35-6.73-40.16-6.38-16.24-29.43-28.08-19.79-50.16-.12 0 35.46 60.54 33.37 57.13 7.3 11.9 7.08 20.28 20.46 34.51 9.45 10.06 27 14.75 37.6 24.37-.41.07-29.1 23.09-30 24-3.81 3.92-1.68 18.12-3.45 19.31-11.9 8-30.41 2.49-41.22 10.08-56.77 39.88 60.8 55.41 61.35 54.16zm-33.55 213.3c5 2.16 43.84 17.36 45.61 8.51 1.11-5.51-38.65-15.28-45.61-8.51zm-63-254.42q4.8-10.44-2.17-7.45-3.24 4.7 2.18 7.45z"/><path class="cls-1" d="M335.67 244.87c11.35-24.77 58.12-31.29 80.09-37.93 42.4-12.82 38.68-32.82 41.25-65.64 36.22 49.23-.09 51.92-39.22 73.33-73.14 40 36.7 29.64 27.84 43.79-7.25 11.58-41.74 22.95-54.36 35.24-15.85 15.42-27.22 28.39-31.06 50.18-7.62 43.21 8.44 45.25-23.78 80.79-4.2-14.09 14.82-46.86 16.58-62.48 3-26.67-10.1-35.2 5-61.27 10.44-18 37.29-11.65 19.11-37.27-11.22-15.86-31.88 6.61-41.45-18.74zm130.52-77.37q4.26-7.89-3.83-10.36 1.8 5.22 3.83 10.36zm-75.36 536.94c1.06-3.51 7.9-2.93 11.48-5.59-16.22-13.5-71 9.3-70.13-15.79 49.25 40 24.68-65.07-9.53-36.28-12.68-38.08 58.76-25.18 71.07-2-12.53 6.27-30.8 16.82-19.72 36.22 5.76 10.06 61.44 14.41 26.23 23a19.7 19.7 0 0 0 12.61 4.87c-2.17 5.53-6.66 8.11-.58 12.22 10.13 6.86 4.67-32.16 4.16-30.07-.91-.82 12.57 9.18 9.86.35-1.18-3.84-7.46-.49-8.25-4.42q4.89-5.11 12.1-3.32c9 7.08-2.5 15.93-6.29 17.73 4.08 8.22 24.08 6.49 28.61.31 11.1 24.7-28.22 2.5-27.28 12.12 2.41 24.66 70 12.31 84.47 7.33-.5 10.74 15.06 42.76-3.9 38.45.82-32-2.15-16.63-32.24-20.49-19.44-2.5-35.16-15.17-54.87-16.5q-.27 12.57 14.84 8.19-1 3.42-2.26 6.74c-21.51 1.41-11.11-10.21-30.16-9.34a10.07 10.07 0 0 0 9 6.85q-7.47 17.09-19.76 10.4c-12.76-13.9 25.45-23.78.54-40.98zM749 667.19c-35.68-3-30.73 45.46-67.46 30.13 6.18-27.15-22.06-51.27 2.76-65.67 7.76-4.51 79.26-5.63 74.36 18.92-1.5 7.54-16.87 2.26-18.25 12.4-.9 6.27 8.87.55 8.59 4.22zm-182.17-4.89c-43.48-35.55 46.28-44 66.56-13.22a24.9 24.9 0 0 0-17.21 10.34c-.6 6.53 17.44 1.79 20.64 3.42-11.52 15-15-7.65-22.31 14.52-4 12.09 8 18.43 6.62 30.41 13.08-1.64 5.35-2.23 22.43 7.49-11 8.81-22.44-.92-33.19 5 3.83-19.49 4.2-35.84-5.79-47.93-5.11-6.15-30.12-21.25-37.75-10.03zM496 490.58c14 4.15-2 10.7 9.45 16.2-3.13 1.35-20.47 56.37-24.72 21.07-21.24 12.94 8.9 18.8-26.65 23.6-36.65 4.94-42.27-12.31-23.19-32.85 33.24-35.77 62.29 38.3 65.11-28.02zm-36.9 27.8q-5.44-9-10.68.32 4.29 9.85 10.68-.32z"/><path class="cls-1" d="M470.33 690.49c-8.91-1.82-25.87 1.88-29.69 5.79-1.4-.86 7-33.26 7.34-38.34 1.34-18.05-37.82-4.81-3.84-30.77 8.3-6.34 46.85 1.36 55.13 3.09a45.92 45.92 0 0 0-27.1 34.52c-5.4 31.16 16 6 25.79 2.62.51.79-10.63 30.81-10.45 30.78-5.32.82-5.42-24.59-17.18-7.69zM827 667.45c-7.36-20.78-19.42-4.61-23.81-10.8-3.61-5.09-22.11-6.68-1.76-22.38-1.51 1.16 65.08-1.64 67.08.58 24.72 27.46-2.88 16.56-5.79 27.45-5.47 20.5-28.1 28-27.86 46-9.62-2-16.32-22.4-31.05-7.71-5.14-7.1 3.72-21.32 10.73-22.13a9.77 9.77 0 0 1-3.27 10.31c12.81 45.43 61.79-64.03 15.73-21.32zm-15.45-19.54q19.07 4.9 28.4-7.56c-7.52-5.23-31.86-4.19-28.44 7.56zM258.51 623.9c18.65 27.63-3.66 15.92-3.53 41.33-18.18-11.92-46.87-9.77-66.92-24.15 19.41-21.61 42.84-17.08 70.45-17.18zm493.84 95.86c-2.56 14.35.33 31.1 15.29 38.23 11.84 5.65 40.8-11.07 42.53-8.68-2.61 2.29-9.77 17.79-2.19 19.41-23 25-25.16-18.21-47.46.18-.12-21.63-16.52-19.34-23.87-31.76-5.29-8.92 14.48-22.9-8.92-28.71-2.34 20.21-4.43 37.68-25 51.11-.1-20.13-6.21-16.61-24.2-18 10.7-12.24-27.84-10.57-29.78-14.49 16-5.55 26.64-32.08 36.32-7a13.15 13.15 0 0 0-9.54 1.88c7.69 14.18 15.27 17.61 28.06 14.15 15.75-4.26 34.9-32.84 31.72-41.29 2.69 7.08 1.78 27.8 17.04 24.97zm-503.5-17.12q-15.45-6.43-22.8 5.49c13.86 6.12-4 2.88-3.83 14.08.12 10.21 12.48 18.63 16.74 3.76-4.46-4.07-18.2 95.44-35.36 42.29a16.42 16.42 0 0 0 13.52 2.36c2.88-1.37-11.84-22.71-16.45-19.74a9.85 9.85 0 0 0 1.27 8.81 45 45 0 0 1-12.64 0c-2.2 2.33 35.11-22.29 33.85-13.54-1 6.73-7.5-28.79-7.82-29.94 2.25 7.94 3.17-48.31-8-19.55-.05.12 7.39 14.67 2.32 14-13-1.74-31 15.32-18.32-10.55a37 37 0 0 1 7.09 9.48c11-23 20.19-11.8 36.58-23.8-3.6 21.16 7.48 13.06 24.44 9.6-.78 7.73-7.44 22.1-10.59 7.25zm34.45 17.09c-13.64 1.44-18.69 1.65-10.8-10.2h-6.7c-1.2-11.61 21.67-5.09 30.54-6.21-5.52 14.57 1.2 5.93 1.71 12.82q.13-9.07 7.11-12.83c-5.43-.82 24.95 16.32 21.15 14 2.67 1.6 25.41 0 20.91 14.67-.12-.12-39.64-10.66-34.61.12 2.76 5.94 25 9.64 29.4 11.27-29.26.16-19.95 17.47-34.92 21.85 1.23-16.23-2.54-16.17-14.12-24.39 3.88-1.65 12.45-2.62 12.85-8.41.56-8.1-10.1-2.06-11.49-6.28 2.28-1.73 23.71 0 10.8-10.55 5.38 4.38-26.91-8.79-26-8.52q-1.45 7.17 4.17 12.66zM590 724.5c-1 .24-28.24 16.66-27.88 6.55.42-11.92 5.06 4.36 12.61-4-5.55-10.37-16.25 5.09-18.82-7.22 32.74-3.48 10-37.4-10.32-15.22-8.66-16.44 20.45-16.65 32.32-13.1-1.06-5.83.11-7.11 6.18-9.1-2 4.18-9 15.62-9.3 17.06-2.3 9.54 8.86 2.47 11 3.82-1.34-.89 4.53 24.6 4.21 21.21zm-9.73-2.17q2.47-5.08-5-5.29-4.15 9.03 4.99 5.29zM851 725.41a49.41 49.41 0 0 1 25.27 6.46c-7.29-3.84-4.94 14.66-8 15.39-6.37 1.51-3-12.07-2.88-14.54-6 1.83-19.9 3.06-20 11-12.49-16.25-14.92 16.39-28.82 7.86a46 46 0 0 1 .56-12.67c11.54 7.93 13.84.25 20.68-9.26-.81-6.88-16.41-1.42-15.44-11.75-.21 2.26 26-3.52 31-2.63-.1.55-20.69 19.58-8 20.08q5.89-2.58 5.63-9.94zm-182.49-395.8q8.65 2.14 14.52-4.3c-11.89-10-73.9 5.41-72.38 7.88-14.46-23.39 155.13-22.66 107.47 30-6-11.66-2.87-24.95-15.81-32.36-8.41-4.83-33.02 7.63-33.8-1.22zM83.81 757.07q-4.62 6.4-10.48 1.09c3.66-10.76 5.84 2.91 12.14-5.06-1.14 1.45-9.37-12.55-10-15.86 9.6 4.2 27.39.7 30.92 9.06q-10.89-4.08-10.65 6.46c2.25 1.52 22.07-10 17.8 3.49-9.89-1.07-14.37 3.08-23.78 4.47a12.61 12.61 0 0 1 4.24 7.54 16.09 16.09 0 0 0-11.86.06c-.56 2.57 17 19.12 2 19.2q4.11-8.24-5-8.66c-.47.1-2.42 15.48-5.24 11.26-10.31-15.55 13.6-26.12 9.91-33.05zm249.33-92.31l3.91-9.31c9.4 3.81-1.14 23-11.72 20.64-4.72-1.08-4.22-7.84-14.26-9.21-2.4-.32-44.55-11.12-43.52-10.26 19-3.94 36.72.39 56-5q-3.64 8.58 9.59 13.14z"/><path class="cls-1" d="M792.74 749.66q-1.15-7.83-8.47-6.22a19.31 19.31 0 0 0-.68 12.79c-.4-.34-16.13-24.69-21.71-11.57 6.1-14.34 16.47-8.9 32.45-20.85 2.59 6.1 1.28 21.66-1.59 25.85zM194.63 400.61c-5 9.52-24.55 20.42-35.78 18.53 9.25-6 60-44.32 68.87-38.36-5.44 5.72-25.44 22.35-33.09 19.83zm266.62 79.62l15.14 5.35c-.95 4-47.47 7.37-47.88-3.6 11.77.95 21.18-14.11 27.21-11.86 6.35 2.36-3.11 13.02 5.53 10.11zm326.88 297.23c-2.28 3.93-15.63 17.33-19.58 17.52-19.83.95 2.14-20.05 3.63-19.17q-4.84-3.18-7.23 1.85c-7.12-15.44 20.59-1.59 23.18-.2zm-198.7-52.82c6.53.18 13-.25 19.57-.28-5.45 5.82-9.54 5.65-17.65 3.07 1.45 7.72 30.18 30.39 5.67 35.65 9.5-28.87-2.34-7-21.86-22.12 15.32-1.31 7.29-8.73 14.27-16.32zm-203.54 63.77q7.16-12.33.83-25.87c6.84.63 24.56 5.19 29.28 1.49 5.84-4.59-16.64 31.22-7.87 3.35-7.79-2.64-16.91 18.3-22.24 21.03zm-19.13-11.87c-5.05-6.92-7.62 4.83-8.31 7.9.55-2.29 8.7 2.38 8.31-7.9zm13-5.2c-7.47-11-7.59 6.63-5.29 6.59zM523 675.68c-27.09 6-16-22.06-7.65-20.07 4 .96 18.74 21.45 7.65 20.07zM732.52 766q-7.54-2.34-7.72 5.47c-7.92-3.09 1-33.59 7.92-36.48-1.64 9.57 7.8 5.83 12.54 12.79-15.56 7.48-12.07-.54-12.74 18.22zm125.54-58.69c15.07 0 3.54-20.48 20.91-5.16-5.34 3.3-9.49 12.86 2.87 10.25q-.27 10.35-8 12.66c-6.23-9.37-13.23-6.69-15.78-17.75zM198.41 385.5c-10.95-16.67 10.35-15.91 8.85-23.57a13.39 13.39 0 0 0-8.75-5.65c6.58-12.58 9.29-.46 18.8-1.69-9.07 15.35-3.96 21.31-18.9 30.91zm-25.12 256.7c-18.13-2.87-22.38 6.87-38.35 13.25-.05-9.43 6.32-17 6.58-31.66-3.12 1.07 31.48 20.43 31.77 18.41zm336.58 56.51c1.67-12 37 6.39 9.32 17.22-4.85-5.79 10-14.53 1.58-17.25-2.34-.76-15.27 18-17.47 5.52zm-90.59-132.04l-4.46-11c10.84 2.48 26.32 4.82 35.92 9.07q-7 7.95.18 15.94a13.46 13.46 0 0 1-11.34-1.34c-4.9-12.62 6.65-12.81-20.3-12.67zM277.77 679.74c6.85 4.35 11.8 1.58 18.82 5.25 23.05 12.01-44.39 11.91-18.82-5.25zm10.74 5.26q-5.85 3.84-.4 7.43 7.17-3.65.4-7.43zm481.58 13.65c5 8.42-8.32 18-11.69 25.67-8.91-31.95-8.16 2.6 11.69-25.67zm-664.53 61.9c8.54 9.49 16.32 22.84-10.33 19.67Q94 767 105.56 760.55zm-3.46 17.05q8.31-.92 8.43-7.83c-.53-1.42-23.01-.77-8.43 7.83zm158.07-33.66c6.95-16.71 2.79 4 13.41-2.71 2-1.26-2.69-11-4.26-13.68l12.12-.07c-15.92 11.37 6.42 3.12 4.12 10.45q-5.34 15.3-25.39 6.01zm283.3-115.44l-5 9.29q7.89 2.31 11.53-6.79c2.15 5.8-9 15.4-9 14.64-.35 9.36-21.63-33.14 2.47-17.14zm5.01 107.33a36.94 36.94 0 0 1 16.76 12.57c-7.04-.89-29.16 8.52-16.76-12.57zM104.21 656.7q2.88-10.11-7.82-6.81c6.73 18.17 1.24 1.26-8.66 9.18-6.59-11.83 17.09-17.31 25.27-21.07-.49 10.24-2.83 10.22-8.79 18.7zm371.84 126.85c-5.39-31 18.45-2.79 21.84-.85-30.39 10.57-3.53 1.46-16-7.23a71 71 0 0 1-5.84 8.08z"/><path class="cls-1" d="M306.38 684.35q17-7.58 18.87 7.16c-10.25-4.39-16.07 21.68-18.87-7.16zm-102.27-1q-5.07-6.44-9.22 0 4.17 6.94 9.22 0zm62.59 95.43c10.21 6.83 5.66-10.24 11.84-9.28 2.34 16.62-.81 15.86-12.84 23.53-1.55-10.34-10.26-1.7-18.43-6.24q12.64 3.21 19.43-8.01zm520.6 18.06c9.58-11.68 11.8-24.11 26.6-5.59.91-.96-24.19 6.36-26.6 5.59zm76.45 20.02c-4.08-5.3-8.85-3.28-13.69.65-.49-2.64 2.75-24.49 8.71-21.74 4.05 1.86 8.75 18.11 4.98 21.09zm-555.88-32.73c-6.23-.78-18.8 16.3-21.82 6.7-3.75-11.92 18.48 1.1 5.05-14.15 3.9-2.25 23.96 1.76 16.77 7.45zm50.61-351.37c-16.65 8.08-34.2-.84-51 3.45 1.62-7.31 47.98-7.49 51-3.45zM699 488.15l-15.72-7c9.72-12.52 24.19-8.56 15.72 7zm123.42 326.78q-11.26 3.39-15.33-7.66c-1.56 3.35-8.57 17.11-14.27 7.09-3.61-6.36 24.36-11.85 29.6.57zm-632.91-49.31c-2.64 9.72-11.39 11.42-24.72 16-2.18.76 4.57 8.75 3.65 10.26-24.82-7.23 9.78-21.31 21.07-26.26zM365 712.52l12.43 2.17c-7.27 15.66-25.12 17.31-12.43-2.17zM157.38 683.8c-27.07 21.8 2.55-3.6-16 3.52-7.45 2.85 6.38 7.64-7 11.12 9.62-2.44-3.59-27.01 23-14.64zm277.42-23.12c-.57 0-47.63 2.87-49.75-1.07 7.08-4.31 50.4-3.7 49.75 1.07zm-312.35 34.94q3.63-11.86-8.7-13.4c11.07-12.35 14.48 1.9 20.07-20 14.61 3.35-10.32 32-11.37 33.4zm119.25 11.52a38.58 38.58 0 0 1 12.2 15.67c-15.9 1.35-21.16.74-12.2-15.67zM409 491.89c-3.94 16 3.39 29.38 1.36 45.1-7 .01-11.53-39.48-1.36-45.1zM274.46 760.4c2.17-1.43 34.19-17.15 28.51-.14-3.44 10.29-10.7-20.43-18.49 9.72q.43-10.84-10.02-9.58zm515.6-46.86q-4.95-8-14.52-7.33c4.11-11.72 18.83-7.06 22.54 4.11a15.73 15.73 0 0 1-8.02 3.22zm-286.2-83.09q11-.74 15.3 9.62c-8.28.36-16 2.39-24.86 2.44 1.2-6.12 13.09-9.68 9.56-12.06zM505 638c5.84.49 6.51-.24 5.57-5.79-4.5-.85-6.57.79-5.57 5.79zM82.13 672.82c-8.78-6-10.59-6.06-6.09-16.18 4.69 4 18.37 21.27 26 18.11-2.47 1.55-21.04 2.13-19.91-1.93zm726.98 64.89q-11.67-1.14-7.49-11.84c6.38-11.87 32.26 14.42 7.49 11.84zm-1.9-3q3.48 3.63 6.55-3.81-9.09-7.24-6.55 3.86zM586.2 683.08q4.45-8.43 12.74-9.6c-.62 0 24.65 18.5 2.48 17a84.55 84.55 0 0 0-.34-8.86c-9.76 2.31-7.35 9.81-14.88 1.46zm-235.79-17.74q-5 2.7.85 6.82 8.21-4-.85-6.82zm495.18 34.75a12.12 12.12 0 0 1 8.41-7.17c-4.48 9.08 7.13.82 4.44 10.35q-6-5.12-11.21-1.4a32.32 32.32 0 0 0 4.85 6.77q-8 2.29-13.9-3.85-1.12-10.38 7.41-4.7zM568 678.19q-2.64-9.47 4.44-15.84c-1.71.58 18.65 5.24 17.07 3.64 6.71 6.81-20.16 4.16-21.51 12.2zm50.14 61.31c-18 4.79-8.68-10.79 6.33-11.85q2.07 8.9-3.45 15c-4.28-4.54-1-2.38.63-9.92-9.39 1.47-2.87 2.32-3.51 6.77zm-532.05-8.36q-12.09 4.68-11.73-5.43c3.09-8.05 25.44 5.51 24.68 8q-4.3 8.97-12.95-2.57zm667.43 48.97c1.81-9.14-15-6.63-13.66-10.14a12 12 0 0 1 6.88-4.64c-2.86-5.69-5.49-2.26-10.81-2.75 6.07-13.58 26.75 9.32 17.59 17.53zM491 761.44a21.64 21.64 0 0 0-15.13.06c-1.51-6 1.81-11.21 2.13-17.57 6.2 5.43 20.39 3.62 13 17.51zm-6.76-11.59q-8 5 .15 7.42 9.05-2.91-.15-7.42zm194.03-251.98c7.18 5.25 20.34 8.89 21.33 18.48-10.38-.23-23.66-6.89-21.33-18.48zm-540 216.98c-15.46-1.54 1.77 4.18 5.91 6.12-6.65 11.07-21.85-.4-15-7.1 3.82-3.74 11.88-8.36 9.09.98zM681.35 767q2.16-13 13.87-11.78c2 1 5.81 16.81-1.53 15.81-15.28-2.08 7.85-12.28-1.91-11.73-4.89.29-4.06 13.99-10.43 7.7zm-529.88-23.84c-6.74 7.37-28.88 10.7-35.82 2.38zm384.22-28.82c7.68 3.41 7.83-7.07 12.84-5.93 5.29 1.2-3 20.57-9.21 15.93zm-78.8-155.18c14.41.74 31.63 8.18 10.94 24.2 6.3 5.54-8.49-38.98-10.94-24.2zm-320.78 75.72q-8 7.73 1.55 11.25c-6.94 2.45-9.51 4.68-18.25 6.73-2.16-2-3.71-15.33 1.82-15.64 4.68-.27.45 9.28.37 11.44 8.53-.57 9.76-15.66 14.51-13.78zm9.54 122.06A31 31 0 0 1 131 773c-.11-2.85 6.82-9.26 6-10.89q-4.47-4.9-11.15-3c3.48-5.23 14.28-5.83 19.8-2.17zM729.36 689q-16.62-7.17-2.28-11.25c.58 2 2.64 8.31 6.32 5.61 6.06-4.45-7.08-10.66 2.79-14.37 2.41 5.35 5.42 19.56-6.83 20.01zm76.12 19.65c1.12-5.22 18.58-13.63 19.08-4.21.37 7.03-16.18 8.17-19.08 4.21zm-344.22 34.48q-6.88 4.73-.58 8.64 8 2 9.2-7.83c1.68 2.67-6.16 15.28-7.23 17.89-6.81-3.53-14.86-17.5-1.39-18.7zm59.93-11.66c1.57 1.45 14.76 6.72 8.68-2.3-4.92-7.29-10.27-.87-15.25 1.74q3.18-10.63 13.43-9.54a18.37 18.37 0 0 1 3 17.61q-5.33-4.76-9.52 1.09-3.44-4.14-.34-8.6zm-304.71-48.08q-4.72-3.87-8 1.81c-.08-16.41 12.35.16 16.17-13.78q7.29 5 4 12.63-5.88-6.4-12.17-.66zm109.21 65.92a14.28 14.28 0 0 1 12.39 1.57c.07 2.71-12.21 13.26-14.17 13.33-5.41.2-.85-18.99 1.78-14.9zm31.88-40.47c1 27.12-34.69-5.58-9.66-5.71-7.25 12.79 5.03 16.05 9.66 5.71zm-117.42 77.23c4.15-2.15.93-12.58 7.21-9.6-6.37 18-20.84 5.44-20.72 5.31 7.21-7.61 9.28-.29 13.51 4.29zm501.99-94q22.38-10.12 20 4.78c-22.94 1.31-6.32-2.48-19.95 9zm-571.72 71.2c-10.69-6.3-4.83 4.69-14.92-5.87q11.28-5.52 21.35.24c6.4 3.42-7.43 5.89-6.43 5.63zm658-80.38c9-4.14-1.87-7 6.12-17.68 4 2.58 3.68 25.42-2.12 23.09q-9.66-4.17-4-5.41zm-253.03-81.53c14.19 17.43 1.65-.38 13.05.78.11 20.54-7.67 7.68-17 6.89zM682.43 516q15.65.93 16.67 14.62c-6.75-4.48-16.62-4.82-16.67-14.62zM153.76 656.09c2.83-2.05 40.26-.75 42.83 1.14-6.08 1.63-35.59.95-42.83-1.14zm104.3 96.47c-3.57 1.85-21.25 4-13.62-6.23q7.86-6.94 13.62 6.23zM140.5 785.28c-1.15-11.06 8.23-12.79 16.94-7.76-1.16 3.73-14.06 8.48-16.94 7.76zm27.44-88.2c-3.39-6.63 10.6-16 12.24-11.48 6.05 16.66-10.52 2.03-12.24 11.48zm555.15 90.82l9.71 6.1c-3.28 1.89-14.75 15-14.51 15-1.06-5.31.26-17.72 4.8-21.1z"/><path class="cls-1" d="M265.64 731.09c-9.88-11.22-10.62 9.78-10.61 11.64-19.36-17.21 12.62-15.79 10.61-11.64zm75.77 41.53c9.73-.94 7 6.72 7.09 14.27q-15.96-.28-7.09-14.27zM503.7 799.4a21.2 21.2 0 0 1-15.47-6.33c12.62-.76 7.32-2.51 15.38-10.68zM409 492q-3.3-8.65-7-4.63c-.1-18.65 21.7 3.58 21.5 4.23-11.57-4.77-5.98-.51-14.5.4zM86.23 709.94l11.51-3.85c4.26 5.52-7.58 17-12.69 16q9.3-5.22 1.18-12.15zm471.4-87.86c-9.63-6.15 3.41-7.55-4.49-13.55q8.52 2.12 13.53-5.13c.06 11.07-2.3 10.43-9.04 18.68zM197.92 730.5l8.91-9c2.62-2.47 2.48 18-.31 17.91q-9.56 1.21-8.56-9 2 7.33 8.16 1.75-3.24-6.54-8.2-1.66zM102 702c-15.51-13.42 14.48-18.49 14.94-10.44-7.94.2-12.04 2.87-14.94 10.44zm120.78-34c-5.33 4.53-14.93-6.23-15.33 2.25.39-8.26 1.91-7.88 6.05-13.53a67.77 67.77 0 0 0 9.28 11.28zm18.81 22.28q2.07-10.46 13.85-15 5.74 9.48-1.49 16.21c-7.8-7.92-4.9-4.19-12.36-1.21zm82.75 99c-17.29-1.19 13-28.86 11.09-12.13-10.01-2.73-9.71 3.05-11.09 12.13z"/><path class="cls-1" d="M344 795.46l-8 4.66c.17-15.31-13.56 1.69-2.55-15.81zm-179.06-82.41l-15.18-5.19q1.49 9.24 10.67 11.38-14.42 7.35-14.51-13.81c6.02.87 18.21-.37 19.02 7.62zm502.59-64.94c-2.46 3.68-29.45 7.24-30.3 1.46 10.32-.98 19.95-.12 30.3-1.46zM241.11 669q8.85 4.75 2.73 10.88c-6.45 12.12-13.23-17.72-2.73-10.88zm192.68 77.68c-1.28 1.58-23.41 4.9-13.05 12.12-11.2 4.25.16-12.32-9.47-12zM488 649.74q-12.83 2.71-1.43 8.48c5.21 2.87 8.21-14.15 12.69 1.51-3.93-2.61-13.62 8.72-16.57-2.85-.69-2.5 1.5-11.8 5.31-7.14zm241.21 137.48q.67-13.49 9.5-12.75a13 13 0 0 0 4.62 10.42zm-265.9-291.55a12.11 12.11 0 0 1 11.69 1.57c-8.29 13.69-12.22-3.44-11.69-1.57zm133.14 208.41c5.07-1.52 16 8.58 9.07 14.16-8.52 6.89-5.64-11.49-9.07-14.16zm-114.1-41.73q6.19 4.86 4 12.2c1.52-2.19-23.73 5.82-4-12.2zm-.51 2.88c-7.42 7.74 2.23 6.73 1.52 8.89q3.45-5.12-1.52-8.89zm235.29 43.24c-12.4-3.11 5.56-12.9-1.21-16.89 1.74-2.82 3.53-3.5 5.39-2zm-604.66-5.12l7.67 6.75c-14.79.08-1.42 5.48-7.87 9.89-7.49 5.12.16-16.58.2-16.64zM220.13 400q1.71 19.88-12.61 6.06 6.63-12.28 12.61-6.06zm355.93 385.41c-5.65 14.07 8.05 5.32-8.09 14.36-3.37-3.05 2.48-16.56 8.09-14.36zm-397.82-76.09c-6.26 8.88-4.71-10.65-5.06-11.58q7.53 4.59 14-1.36c-5.7 9.98-15.97 1.68-8.94 12.94zM439 736c1.5 9.87 12.72 1.12 12 2.18-13.24 19.37-12.14-2.18-12-2.18zm255.19-29.67q17.09-5.58 1.84 13.8c-7.84 1.87-2.03-12.81-1.84-13.8zM536.45 602.64c-10.62-5.26 9.79-5.63 10.28 3.82-8.28-3.2-11.78-2.33-3.31 4.12q-13.73 3.24-6.97-7.94zm198.32 205.28c-9.35-4.19-1-11.19 2.66-17.87 8.91 10.23-1.76 4.14-2.66 17.87zM161.8 694.87c-5.57 12-8 .43-16.51 7.15 1-5.71 11.5-9.43 16.51-7.15zm405.64 7.62c8.53 22.9-20.49-1-11-3.21q3.95 18.18 11 3.21zm-308.51 50.16l18.1-1.8c-3.6 8.66-12.87 10.41-18.1 1.8zm504.69-99.53c-3-7.39 13.44-3.68 15.34-2.48q-5.76 7.46-15.34 2.48zm-95.21 92.93c11.91 4.91 12.24 3.61 1.3 10.33q-7.12-7.26-1.3-10.33zm-389.7-386.34c1.21-1.72.77-14.31 12.64-3.92a14.21 14.21 0 0 1-12.64 3.92zM166.22 741.27l-5.52 6.93c-3.38.09-3.06-16.58 5.52-6.93zm155.64-26.77l-8.86-2.62c.13-5.65 8.56-13.51 13.51-12.9-6.87 5.2-6.61 7.19-4.65 15.52zm52.24 36.6c9.72-4 4.87-5.28-.74-9.14 11.47-8.96 12.34 22.04.74 9.14zm401.96 39.79h10.32c-3.71 7.29-11.19 11.51-10.32 0zm33.69-135.41c1.44 4.34 2.09 11.21-1.08 15.06-2.76 3.34-4.41-15.63 1.08-15.06zm-93.91 69.74q-4.33-5-3-10.62c14.84-.8 3.36 11.76 3 10.62zM521.6 632.06c-9.65-5.71-.27-9.84 6.65-9.87 1.31 2.56-5.57 8.21-6.65 9.87zM190.13 749.1l-8.55 1.9c7-7.1-5.11-15.87 5.65-16.67-.51.01 2.58 13 2.9 14.77zm124.5 52.99c-14.73-6.06-14.64-4.18-1-12.54q4.76 7.13 1 12.54zM448.08 499c-2.72-.82-19.08 2-20-3.32q20.97-9.97 20 3.32zm-94.56 267.64l-11.06-6.34c6.78-8.67 16.18 4.88 11.06 6.34zm41.59-53.02c-2.83 5.55-7.07 7.71-12.67 6.72 6.44-9.34 6.86-9.6 12.67-6.72zm103.01-4.21c16.24-1.75-3 10.57-4.14 11.41a12.24 12.24 0 0 1-4.53-5.16c5.96-.95 6.93-1.45 8.67-6.25zm319.29 5.26c.43 11.9-10.65 6.43-14.82 1.13 6.12-3.97 9.55 7.75 14.82-1.13zM699.18 345a42.19 42.19 0 0 1-18.37-3.48c4.1.48 19.29-2.7 18.37 3.48zM179.17 785.6q9-.93 12.5 5.71c-4.21 1.25-23.67-1.5-12.5-5.71zm199.08-62.05q4.28 8.46 13.37 5.4c-3.53 6.26-17.01 6.16-13.37-5.4zm-232.77 41.39q5.88-10.59 9.22-1.66.81 9.21-9.22 1.66zM822 656.25q3.45 12.19-4.79 13.43c-3.95-1.57-.21-14.89 4.79-13.43zm9.57 131.93c-3.55-8.27 7.12-4.63 10.11-2.58-.97 3.4-6.93 2.4-10.11 2.58zM193.21 771c7.18-1.26 10.46 2.55 10 11.32zm258.4 16.73q9.54 5.79-.11 12.45-8.05-12.36.11-12.45zm-328.95 12.75l6.44 7.12c-8.17 9.09-11.7-7.6-6.44-7.12zm308.76-37.64q1.6-9.23 7.81-5.93 3.99 12.35-7.81 5.93zm221.25-100.3l17.92-.1c-6.08 4.04-12.59 5.49-17.92.1zm-502.61 65.98q7.13 3.62 2.47 6.44-18.25-1.42-2.47-6.44zm97.37 38.76q3.9-9.87 10.17-1.08-6.69 7.44-10.17 1.08zm323.95-154.97c5.35 4.54 3.1 10.27-2.37 11.36a13.19 13.19 0 0 1 2.37-11.36zm-108.61 80.77q8.06 6.1 13.7-1.81c-3 9.62-16.94 8.46-13.7 1.81z"/><path class="cls-1" d="M106.2 727.4c-.52-8.67 17.79-3.55 16.68-.09zm29.23 56.81L119.38 778c5.17-2.12 14.18-.89 16.05 6.21zm418.69-187.32a8.58 8.58 0 0 1 8.49 1.81c2.78 8.97-12.08 3.48-8.49-1.81zm43.82 121.26c-10 2.22-9.53-4-3.85-13 .04 6.76-4.4 9.14 3.85 13zM501.7 743.5c-10.69 7.32-3-5.14-15-1.47q8.22-5.34 15 1.47zm-29.96-16.57a29.66 29.66 0 0 1 2.07-16.76c1.72-.63 3.47 17.26-2.07 16.76zm274.62 71.81q1.75 10.78-8.17 11.17zm-348.55-41.15q-12.85 6.3-6.36-6.42zm-17.74-53.15c-4.65 5.58-8.77 1.11-12.69.65 3.7-4.48 7.76-1.09 12.69-.65zm-137.69 62.69l-6.2 8.22c1.39 1-4.17-9-4.1-8.61q7.28-5.04 10.3.39zm-5.22-16.32l-2.07 9.59c-.94-.88-7.41-15.71 2.07-9.59zm579.61 47.33a15.3 15.3 0 0 1 1.29-8.46c5.39 3.04 4.26 6.56-1.29 8.46zm-378.01-26.87q-5.62 4.15-11.41.41-.48-10.51 11.41-.41zm-8.58-188.15q-7.76 6-7.88-5.66c1.86-2.26 9.7 2.74 7.88 5.66zM179.89 732.76c-5.55 5.71-9.7-2.29-10.34-5.83zm13.94 70.18q-3.21 10.18-10.24 1.38c.85-2.8 7.94-.97 10.24-1.38zm304.4-93.63q-5.75-4.09-11.28.37c1.05-15.98 12.94.39 11.28-.37zM849 672.71q-4.4 9.45-7.7 2.46 3.26-9.54 7.7-2.46zM159.89 803.28q6.27 6.24 9.81-2.56 3.44 14.79-9.81 2.56zm194.98-64.54c-10.29-3.76-.11-10.62 5-6.65q-6.42.17-5 6.65zM95.32 724.23a7.55 7.55 0 0 1 5.56-6.33q4.41 8.04-5.56 6.33zm257.77 75.67l9.92-3.82c1.2 5.92 1.06 5.92-9.92 3.82zm-222.38-94.16l-10.36-.8c3.65-5.88 3.65-5.88 10.36.8zM658 705l-8.87 3.07q.7-15.18 8.87-3.07zm-540.12 76.25q8.61 9.72-3.78 7.13-1.93-8.73 3.78-7.13zm-16.7-114.76c-.23-5.75 2.71-6.64 7-6.23 1.49 6.21-4.09 4.3-7 6.23zm736.58 134.82c1.1-6.59 3.84-7.6 9.67-3.19zM461.35 699.87c4.4 26.47-.16 1.76 7.36 8.8-11.25 9.78-7.56-8.77-7.36-8.8zm232.93 6.36c-8.37 5.86-5.46 3-7.27-2.56 5.88-1.04 4.15 2.81 7.27 2.56zM585.73 806.57q-2.51-7.53 5.94-6.84 1.11 6.72-5.94 6.84zM248.92 674.83c-.49-3.1-.94-6-1.53-9.75 6.97 3.53 7.08 5.92 1.53 9.75zm92.4 86.8q-1.24 13.32-7.52 5c1.03-1.07 5.68-6.87 7.52-5zm391.03 4.5q5 6.07-2.76 10.94c-5.19-4.34.72-4.75 2.76-10.94zm-325.7-8.46c.09-10.49-11.36-2-3.93-10.81q9.14 3.5 3.93 10.81zm-36.55-5.45l-1.73 10c-2.13-2.44-6.09-11.84 1.73-10zm-21.95-7.92q5.46 9.72-3.8 10.4-2.79-12.19 3.8-10.4zm-172.76-5.03c0 6.79 4.78 8.58-4.89 7.13q-.09-8.58 4.89-7.13zM533.77 673q-2.88-10.32 3.57-6.15 2.38 8.39-3.57 6.15zM221.76 354.46q-5.34-9 1.54-8.73 5.84 9.07-1.54 8.73zM443.41 101.7l3.15-14.29c3.44.77.03 15.01-3.15 14.29zM77 715.57q-2.79-6.92 4.25-9.49c1.45 2.01-2.11 8.48-4.25 9.49zm117.47 10.03q-6.94.17-7.45-4.72c1.15-.11 12.62 1.77 7.45 4.72zM106 786.08c-2.19 5.13-4.07 5.45-8.49 1.58zm22.82-114.3q-3.09 7.13-6.7 3.7-1.65-10.59 6.7-3.7zm546.49 71.77l-7.4-7c5.09-1.38 6.66-.02 7.4 7zm-86.37 40.18L587 792c-1.3-1.86-5-11.3 1.94-8.27zM170.33 773.6q-7.32.84-9.5-4.14c.83-.06 11.87-1.06 9.5 4.14zM569.41 745q7-2.1 3.86 5.41-6.63 2.31-3.86-5.41zm166.33-201.24a67.2 67.2 0 0 1 30.54-5.28c-3.73 5.36-30.82 12.3-30.54 5.28zM752.8 530c-7 9-19.48 8.52-23.92.13z"/><path d="M532.2 485.17c6.1-5.93 46.88 2.2 45.61 8.51-1.81 8.85-40.58-6.35-45.61-8.51zm-62.99-254.42q-5.43-2.75-2.21-7.45 7-2.98 2.21 7.45zm-3.02-63.25q-2-5.15-3.83-10.36 8.09 2.48 3.83 10.36zm-7.09 350.88q-6.39 10.17-10.68.32 5.24-9.36 10.68-.32zm352.41 129.53c-3.42-11.75 20.92-12.79 28.4-7.56q-9.33 12.46-28.4 7.56zm-231.25 74.42q-9.13 3.75-5-5.29 7.49.19 5 5.29zm-213.5 54.21c.39 10.28-7.8 5.61-8.31 7.9.69-3.07 3.26-14.82 8.31-7.9zm12.99-5.2l-5.29 6.59c-2.3.07-2.18-17.57 5.29-6.59zM288.51 685q6.78 3.75-.4 7.43-5.46-3.57.4-7.43zM102.1 777.6c-14.58-8.65 7.88-9.25 8.43-7.83q-.12 6.92-8.43 7.83zm102.01-94.25q-5 6.95-9.22 0 4.11-6.43 9.22 0zM505 638c-1-5 1.07-6.67 5.57-5.79.94 5.58.27 6.31-5.57 5.79zm302.21 96.76q-2.54-11.1 6.55-3.81-3.07 7.44-6.55 3.81zm-456.8-69.42q9.06 2.8.85 6.82-5.83-4.11-.85-6.82zm267.73 74.16c.64-4.45-5.88-5.3 3.51-6.81.98-4.64-3.65 9.31-3.51 6.81zm-133.9 10.35q9.19 4.5.15 7.42-8.11-2.43-.15-7.42zM197.92 730.5q5-4.87 8.2 1.66c-12.67 5.48-1.68.13-8.2-1.66zm283.92-65.27q5 3.76 1.52 8.89c.71-2.12-8.94-1.12-1.52-8.89z"/></g></g></svg>